<?xml version='1.0' encoding='us-ascii'?>
<svg height="136.60mm" viewBox="0.0 0.0 225.30 136.60" width="225.30mm" xmlns="http://www.w3.org/2000/svg" xmlns:cc="http://creativecommons.org/ns#" xmlns:dc="http://purl.org/dc/elements/1.1/" xmlns:inkscape="http://www.inkscape.org/namespaces/inkscape" xmlns:rdf="http://www.w3.org/1999/02/22-rdf-syntax-ns#" xmlns:svg="http://www.w3.org/2000/svg" xmlns:xlink="http://www.w3.org/1999/xlink">
<!--
AngledBox - Box with both ends cornered

Created with Boxes.py (https://festi.info/boxes.py)
Creation date: 2021-12-07 16:18:53
Command line (remove spaces between dashes): boxes AngledBox - -FingerJoint_angle=90.0 - -FingerJoint_style=rectangular - -FingerJoint_surroundingspaces=2.0 - -FingerJoint_edge_width=1.0 - -FingerJoint_finger=2.0 - -FingerJoint_play=0.0 - -FingerJoint_space=2.0 - -FingerJoint_width=1.0 - -x=50.0 - -y=50.0 - -h=50.0 - -outside=0 - -outside=1 - -bottom_edge=h - -n=1 - -top=none - -thickness=3.0 - -format=svg - -tabs=0.0 - -debug=0 - -labels=0 - -labels=1 - -reference=100 - -burn=0.1
Url: http://www.festi.info/AngledBox?FingerJoint_angle=90.0&FingerJoint_style=rectangular&FingerJoint_surroundingspaces=2.0&FingerJoint_edge_width=1.0&FingerJoint_finger=2.0&FingerJoint_play=0.0&FingerJoint_space=2.0&FingerJoint_width=1.0&x=50.0&y=50.0&h=50.0&outside=0&outside=1&bottom_edge=h&n=1&top=none&thickness=3.0&format=svg&tabs=0.0&debug=0&labels=0&labels=1&reference=100&burn=0.1&render=1
SettingsUrl: http://www.festi.info/AngledBox?FingerJoint_angle=90.0&FingerJoint_style=rectangular&FingerJoint_surroundingspaces=2.0&FingerJoint_edge_width=1.0&FingerJoint_finger=2.0&FingerJoint_play=0.0&FingerJoint_space=2.0&FingerJoint_width=1.0&x=50.0&y=50.0&h=50.0&outside=0&outside=1&bottom_edge=h&n=1&top=none&thickness=3.0&format=svg&tabs=0.0&debug=0&labels=0&labels=1&reference=100&burn=0.1
-->
<title>AngledBox</title>
<metadata>
<rdf:RDF><cc:Work>
<dc:title>Box - AngledBox</dc:title>
<dc:date>2021-12-07 16:18:53</dc:date>
<dc:source>http://www.festi.info/AngledBox?FingerJoint_angle=90.0&amp;FingerJoint_style=rectangular&amp;FingerJoint_surroundingspaces=2.0&amp;FingerJoint_edge_width=1.0&amp;FingerJoint_finger=2.0&amp;FingerJoint_play=0.0&amp;FingerJoint_space=2.0&amp;FingerJoint_width=1.0&amp;x=50.0&amp;y=50.0&amp;h=50.0&amp;outside=0&amp;outside=1&amp;bottom_edge=h&amp;n=1&amp;top=none&amp;thickness=3.0&amp;format=svg&amp;tabs=0.0&amp;debug=0&amp;labels=0&amp;labels=1&amp;reference=100&amp;burn=0.1&amp;render=1</dc:source>
<dc:description>Box with both ends cornered

Created with Boxes.py (https://festi.info/boxes.py)
Command line: boxes AngledBox --FingerJoint_angle=90.0 --FingerJoint_style=rectangular --FingerJoint_surroundingspaces=2.0 --FingerJoint_edge_width=1.0 --FingerJoint_finger=2.0 --FingerJoint_play=0.0 --FingerJoint_space=2.0 --FingerJoint_width=1.0 --x=50.0 --y=50.0 --h=50.0 --outside=0 --outside=1 --bottom_edge=h --n=1 --top=none --thickness=3.0 --format=svg --tabs=0.0 --debug=0 --labels=0 --labels=1 --reference=100 --burn=0.1
Url: http://www.festi.info/AngledBox?FingerJoint_angle=90.0&amp;FingerJoint_style=rectangular&amp;FingerJoint_surroundingspaces=2.0&amp;FingerJoint_edge_width=1.0&amp;FingerJoint_finger=2.0&amp;FingerJoint_play=0.0&amp;FingerJoint_space=2.0&amp;FingerJoint_width=1.0&amp;x=50.0&amp;y=50.0&amp;h=50.0&amp;outside=0&amp;outside=1&amp;bottom_edge=h&amp;n=1&amp;top=none&amp;thickness=3.0&amp;format=svg&amp;tabs=0.0&amp;debug=0&amp;labels=0&amp;labels=1&amp;reference=100&amp;burn=0.1&amp;render=1
SettingsUrl: http://www.festi.info/AngledBox?FingerJoint_angle=90.0&amp;FingerJoint_style=rectangular&amp;FingerJoint_surroundingspaces=2.0&amp;FingerJoint_edge_width=1.0&amp;FingerJoint_finger=2.0&amp;FingerJoint_play=0.0&amp;FingerJoint_space=2.0&amp;FingerJoint_width=1.0&amp;x=50.0&amp;y=50.0&amp;h=50.0&amp;outside=0&amp;outside=1&amp;bottom_edge=h&amp;n=1&amp;top=none&amp;thickness=3.0&amp;format=svg&amp;tabs=0.0&amp;debug=0&amp;labels=0&amp;labels=1&amp;reference=100&amp;burn=0.1
</dc:description>
</cc:Work></rdf:RDF></metadata>
<g id="p-0" style="fill:none;stroke-linecap:round;stroke-linejoin:round;">
  <path d="M 10.100 126.600 H 110.100 V 116.600 H 10.100 V 126.600 Z" stroke="rgb(0,0,0)" stroke-width="0.20" />
  <text alignment-baseline="hanging" font-size="10px" style="font-family: sans-serif ; font-weight: normal; font-style: normal; fill: rgb(0,0,0)" text-anchor="middle" transform="matrix( 1.000 0.000 0.000 1.000 60.100 116.600 )">100mm</text><text alignment-baseline="hanging" font-size="4px" style="font-family: sans-serif ; font-weight: normal; font-style: normal; fill: rgb(255,0,0)" text-anchor="middle" transform="matrix( 1.000 0.000 0.000 1.000 15.100 119.600 )" />
</g>
<g id="p-1" style="fill:none;stroke-linecap:round;stroke-linejoin:round;">
  <text alignment-baseline="hanging" font-size="4px" style="font-family: sans-serif ; font-weight: normal; font-style: normal; fill: rgb(255,0,0)" text-anchor="middle" transform="matrix( 1.000 0.000 0.000 1.000 35.100 87.900 )">Bottom</text><path d="M 13.100 111.900 H 20.000 C 20.100 111.900 20.000 111.800 20.000 111.900 V 114.800 C 20.000 114.855 20.045 114.900 20.100 114.900 H 26.100 C 26.155 114.900 26.200 114.855 26.200 114.800 V 111.900 C 26.200 111.800 26.100 111.900 26.200 111.900 H 32.000 C 32.100 111.900 32.000 111.800 32.000 111.900 V 114.800 C 32.000 114.855 32.045 114.900 32.100 114.900 H 38.100 C 38.155 114.900 38.200 114.855 38.200 114.800 V 111.900 C 38.200 111.800 38.100 111.900 38.200 111.900 H 44.000 C 44.100 111.900 44.000 111.800 44.000 111.900 V 114.800 C 44.000 114.855 44.045 114.900 44.100 114.900 H 50.100 C 50.155 114.900 50.200 114.855 50.200 114.800 V 111.900 C 50.200 111.800 50.100 111.900 50.200 111.900 H 57.100 C 57.155 111.900 57.200 111.855 57.200 111.800 V 104.900 C 57.200 104.800 57.100 104.900 57.200 104.900 H 60.100 C 60.155 104.900 60.200 104.855 60.200 104.800 V 98.800 C 60.200 98.745 60.155 98.700 60.100 98.700 H 57.200 C 57.100 98.700 57.200 98.800 57.200 98.700 V 92.900 C 57.200 92.800 57.100 92.900 57.200 92.900 H 60.100 C 60.155 92.900 60.200 92.855 60.200 92.800 V 86.800 C 60.200 86.745 60.155 86.700 60.100 86.700 H 57.200 C 57.100 86.700 57.200 86.800 57.200 86.700 V 80.900 C 57.200 80.800 57.100 80.900 57.200 80.900 H 60.100 C 60.155 80.900 60.200 80.855 60.200 80.800 V 74.800 C 60.200 74.745 60.155 74.700 60.100 74.700 H 57.200 C 57.100 74.700 57.200 74.800 57.200 74.700 V 67.800 C 57.200 67.745 57.155 67.700 57.100 67.700 H 50.200 C 50.100 67.700 50.200 67.800 50.200 67.700 V 64.800 C 50.200 64.745 50.155 64.700 50.100 64.700 H 44.100 C 44.045 64.700 44.000 64.745 44.000 64.800 V 67.700 C 44.000 67.800 44.100 67.700 44.000 67.700 H 38.200 C 38.100 67.700 38.200 67.800 38.200 67.700 V 64.800 C 38.200 64.745 38.155 64.700 38.100 64.700 H 32.100 C 32.045 64.700 32.000 64.745 32.000 64.800 V 67.700 C 32.000 67.800 32.100 67.700 32.000 67.700 H 26.200 C 26.100 67.700 26.200 67.800 26.200 67.700 V 64.800 C 26.200 64.745 26.155 64.700 26.100 64.700 H 20.100 C 20.045 64.700 20.000 64.745 20.000 64.800 V 67.700 C 20.000 67.800 20.100 67.700 20.000 67.700 H 13.100 C 13.045 67.700 13.000 67.745 13.000 67.800 V 74.700 C 13.000 74.800 13.100 74.700 13.000 74.700 H 10.100 C 10.045 74.700 10.000 74.745 10.000 74.800 V 80.800 C 10.000 80.855 10.045 80.900 10.100 80.900 H 13.000 C 13.100 80.900 13.000 80.800 13.000 80.900 V 86.700 C 13.000 86.800 13.100 86.700 13.000 86.700 H 10.100 C 10.045 86.700 10.000 86.745 10.000 86.800 V 92.800 C 10.000 92.855 10.045 92.900 10.100 92.900 H 13.000 C 13.100 92.900 13.000 92.800 13.000 92.900 V 98.700 C 13.000 98.800 13.100 98.700 13.000 98.700 H 10.100 C 10.045 98.700 10.000 98.745 10.000 98.800 V 104.800 C 10.000 104.855 10.045 104.900 10.100 104.900 H 13.000 C 13.100 104.900 13.000 104.800 13.000 104.900 V 111.800 C 13.000 111.855 13.045 111.900 13.100 111.900" stroke="rgb(0,0,0)" stroke-width="0.20" />
</g>
<g id="p-2" style="fill:none;stroke-linecap:round;stroke-linejoin:round;">
  <path d="M 23.100 60.000 H 20.200 C 20.100 60.000 20.200 60.100 20.200 60.000 V 57.200 C 20.200 57.100 20.100 57.200 20.200 57.200 H 26.000 C 26.100 57.200 26.000 57.100 26.000 57.200 V 60.000 C 26.000 60.100 26.100 60.000 26.000 60.000 H 23.100 Z" stroke="rgb(0,0,255)" stroke-width="0.20" />
  <path d="M 35.100 60.000 H 32.200 C 32.100 60.000 32.200 60.100 32.200 60.000 V 57.200 C 32.200 57.100 32.100 57.200 32.200 57.200 H 38.000 C 38.100 57.200 38.000 57.100 38.000 57.200 V 60.000 C 38.000 60.100 38.100 60.000 38.000 60.000 H 35.100 Z" stroke="rgb(0,0,255)" stroke-width="0.20" />
  <path d="M 47.100 60.000 H 44.200 C 44.100 60.000 44.200 60.100 44.200 60.000 V 57.200 C 44.200 57.100 44.100 57.200 44.200 57.200 H 50.000 C 50.100 57.200 50.000 57.100 50.000 57.200 V 60.000 C 50.000 60.100 50.100 60.000 50.000 60.000 H 47.100 Z" stroke="rgb(0,0,255)" stroke-width="0.20" />
  <text alignment-baseline="hanging" font-size="4px" style="font-family: sans-serif ; font-weight: normal; font-style: normal; fill: rgb(255,0,0)" text-anchor="middle" transform="matrix( 1.000 0.000 0.000 1.000 35.100 34.700 )">wall 1</text><path d="M 13.100 63.200 H 57.100 H 60.100 C 60.155 63.200 60.200 63.155 60.200 63.100 V 57.100 V 48.600 C 60.200 48.545 60.155 48.500 60.100 48.500 H 57.200 C 57.100 48.500 57.200 48.600 57.200 48.500 V 42.700 C 57.200 42.600 57.100 42.700 57.200 42.700 H 60.100 C 60.155 42.700 60.200 42.655 60.200 42.600 V 36.600 C 60.200 36.545 60.155 36.500 60.100 36.500 H 57.200 C 57.100 36.500 57.200 36.600 57.200 36.500 V 30.700 C 57.200 30.600 57.100 30.700 57.200 30.700 H 60.100 C 60.155 30.700 60.200 30.655 60.200 30.600 V 24.600 C 60.200 24.545 60.155 24.500 60.100 24.500 H 57.200 C 57.100 24.500 57.200 24.600 57.200 24.500 V 18.700 C 57.200 18.600 57.100 18.700 57.200 18.700 H 60.100 C 60.155 18.700 60.200 18.655 60.200 18.600 V 10.100 C 60.200 10.045 60.155 10.000 60.100 10.000 H 57.100 H 13.100 H 10.100 C 10.045 10.000 10.000 10.045 10.000 10.100 V 18.600 C 10.000 18.655 10.045 18.700 10.100 18.700 H 13.000 C 13.100 18.700 13.000 18.600 13.000 18.700 V 24.500 C 13.000 24.600 13.100 24.500 13.000 24.500 H 10.100 C 10.045 24.500 10.000 24.545 10.000 24.600 V 30.600 C 10.000 30.655 10.045 30.700 10.100 30.700 H 13.000 C 13.100 30.700 13.000 30.600 13.000 30.700 V 36.500 C 13.000 36.600 13.100 36.500 13.000 36.500 H 10.100 C 10.045 36.500 10.000 36.545 10.000 36.600 V 42.600 C 10.000 42.655 10.045 42.700 10.100 42.700 H 13.000 C 13.100 42.700 13.000 42.600 13.000 42.700 V 48.500 C 13.000 48.600 13.100 48.500 13.000 48.500 H 10.100 C 10.045 48.500 10.000 48.545 10.000 48.600 V 57.100 V 63.100 C 10.000 63.155 10.045 63.200 10.100 63.200 H 13.100" stroke="rgb(0,0,0)" stroke-width="0.20" />
</g>
<g id="p-3" style="fill:none;stroke-linecap:round;stroke-linejoin:round;">
  <path d="M 74.800 60.000 H 71.900 C 71.800 60.000 71.900 60.100 71.900 60.000 V 57.200 C 71.900 57.100 71.800 57.200 71.900 57.200 H 77.700 C 77.800 57.200 77.700 57.100 77.700 57.200 V 60.000 C 77.700 60.100 77.800 60.000 77.700 60.000 H 74.800 Z" stroke="rgb(0,0,255)" stroke-width="0.20" />
  <path d="M 86.800 60.000 H 83.900 C 83.800 60.000 83.900 60.100 83.900 60.000 V 57.200 C 83.900 57.100 83.800 57.200 83.900 57.200 H 89.700 C 89.800 57.200 89.700 57.100 89.700 57.200 V 60.000 C 89.700 60.100 89.800 60.000 89.700 60.000 H 86.800 Z" stroke="rgb(0,0,255)" stroke-width="0.20" />
  <path d="M 98.800 60.000 H 95.900 C 95.800 60.000 95.900 60.100 95.900 60.000 V 57.200 C 95.900 57.100 95.800 57.200 95.900 57.200 H 101.700 C 101.800 57.200 101.700 57.100 101.700 57.200 V 60.000 C 101.700 60.100 101.800 60.000 101.700 60.000 H 98.800 Z" stroke="rgb(0,0,255)" stroke-width="0.20" />
  <text alignment-baseline="hanging" font-size="4px" style="font-family: sans-serif ; font-weight: normal; font-style: normal; fill: rgb(255,0,0)" text-anchor="middle" transform="matrix( 1.000 0.000 0.000 1.000 86.800 34.700 )">wall 2</text><path d="M 64.800 63.200 H 108.800 C 108.855 63.200 108.900 63.155 108.900 63.100 V 57.100 V 48.700 C 108.900 48.600 108.800 48.700 108.900 48.700 H 111.800 C 111.855 48.700 111.900 48.655 111.900 48.600 V 42.600 C 111.900 42.545 111.855 42.500 111.800 42.500 H 108.900 C 108.800 42.500 108.900 42.600 108.900 42.500 V 36.700 C 108.900 36.600 108.800 36.700 108.900 36.700 H 111.800 C 111.855 36.700 111.900 36.655 111.900 36.600 V 30.600 C 111.900 30.545 111.855 30.500 111.800 30.500 H 108.900 C 108.800 30.500 108.900 30.600 108.900 30.500 V 24.700 C 108.900 24.600 108.800 24.700 108.900 24.700 H 111.800 C 111.855 24.700 111.900 24.655 111.900 24.600 V 18.600 C 111.900 18.545 111.855 18.500 111.800 18.500 H 108.900 C 108.800 18.500 108.900 18.600 108.900 18.500 V 10.100 C 108.900 10.045 108.855 10.000 108.800 10.000 H 64.800 C 64.745 10.000 64.700 10.045 64.700 10.100 V 18.500 C 64.700 18.600 64.800 18.500 64.700 18.500 H 61.800 C 61.745 18.500 61.700 18.545 61.700 18.600 V 24.600 C 61.700 24.655 61.745 24.700 61.800 24.700 H 64.700 C 64.800 24.700 64.700 24.600 64.700 24.700 V 30.500 C 64.700 30.600 64.800 30.500 64.700 30.500 H 61.800 C 61.745 30.500 61.700 30.545 61.700 30.600 V 36.600 C 61.700 36.655 61.745 36.700 61.800 36.700 H 64.700 C 64.800 36.700 64.700 36.600 64.700 36.700 V 42.500 C 64.700 42.600 64.800 42.500 64.700 42.500 H 61.800 C 61.745 42.500 61.700 42.545 61.700 42.600 V 48.600 C 61.700 48.655 61.745 48.700 61.800 48.700 H 64.700 C 64.800 48.700 64.700 48.600 64.700 48.700 V 57.100 V 63.100 C 64.700 63.155 64.745 63.200 64.800 63.200" stroke="rgb(0,0,0)" stroke-width="0.20" />
</g>
<g id="p-4" style="fill:none;stroke-linecap:round;stroke-linejoin:round;">
  <path d="M 126.500 60.000 H 123.600 C 123.500 60.000 123.600 60.100 123.600 60.000 V 57.200 C 123.600 57.100 123.500 57.200 123.600 57.200 H 129.400 C 129.500 57.200 129.400 57.100 129.400 57.200 V 60.000 C 129.400 60.100 129.500 60.000 129.400 60.000 H 126.500 Z" stroke="rgb(0,0,255)" stroke-width="0.20" />
  <path d="M 138.500 60.000 H 135.600 C 135.500 60.000 135.600 60.100 135.600 60.000 V 57.200 C 135.600 57.100 135.500 57.200 135.600 57.200 H 141.400 C 141.500 57.200 141.400 57.100 141.400 57.200 V 60.000 C 141.400 60.100 141.500 60.000 141.400 60.000 H 138.500 Z" stroke="rgb(0,0,255)" stroke-width="0.20" />
  <path d="M 150.500 60.000 H 147.600 C 147.500 60.000 147.600 60.100 147.600 60.000 V 57.200 C 147.600 57.100 147.500 57.200 147.600 57.200 H 153.400 C 153.500 57.200 153.400 57.100 153.400 57.200 V 60.000 C 153.400 60.100 153.500 60.000 153.400 60.000 H 150.500 Z" stroke="rgb(0,0,255)" stroke-width="0.20" />
  <text alignment-baseline="hanging" font-size="4px" style="font-family: sans-serif ; font-weight: normal; font-style: normal; fill: rgb(255,0,0)" text-anchor="middle" transform="matrix( 1.000 0.000 0.000 1.000 138.500 34.700 )">wall 3</text><path d="M 116.500 63.200 H 160.500 H 163.500 C 163.555 63.200 163.600 63.155 163.600 63.100 V 57.100 V 48.600 C 163.600 48.545 163.555 48.500 163.500 48.500 H 160.600 C 160.500 48.500 160.600 48.600 160.600 48.500 V 42.700 C 160.600 42.600 160.500 42.700 160.600 42.700 H 163.500 C 163.555 42.700 163.600 42.655 163.600 42.600 V 36.600 C 163.600 36.545 163.555 36.500 163.500 36.500 H 160.600 C 160.500 36.500 160.600 36.600 160.600 36.500 V 30.700 C 160.600 30.600 160.500 30.700 160.600 30.700 H 163.500 C 163.555 30.700 163.600 30.655 163.600 30.600 V 24.600 C 163.600 24.545 163.555 24.500 163.500 24.500 H 160.600 C 160.500 24.500 160.600 24.600 160.600 24.500 V 18.700 C 160.600 18.600 160.500 18.700 160.600 18.700 H 163.500 C 163.555 18.700 163.600 18.655 163.600 18.600 V 10.100 C 163.600 10.045 163.555 10.000 163.500 10.000 H 160.500 H 116.500 H 113.500 C 113.445 10.000 113.400 10.045 113.400 10.100 V 18.600 C 113.400 18.655 113.445 18.700 113.500 18.700 H 116.400 C 116.500 18.700 116.400 18.600 116.400 18.700 V 24.500 C 116.400 24.600 116.500 24.500 116.400 24.500 H 113.500 C 113.445 24.500 113.400 24.545 113.400 24.600 V 30.600 C 113.400 30.655 113.445 30.700 113.500 30.700 H 116.400 C 116.500 30.700 116.400 30.600 116.400 30.700 V 36.500 C 116.400 36.600 116.500 36.500 116.400 36.500 H 113.500 C 113.445 36.500 113.400 36.545 113.400 36.600 V 42.600 C 113.400 42.655 113.445 42.700 113.500 42.700 H 116.400 C 116.500 42.700 116.400 42.600 116.400 42.700 V 48.500 C 116.400 48.600 116.500 48.500 116.400 48.500 H 113.500 C 113.445 48.500 113.400 48.545 113.400 48.600 V 57.100 V 63.100 C 113.400 63.155 113.445 63.200 113.500 63.200 H 116.500" stroke="rgb(0,0,0)" stroke-width="0.20" />
</g>
<g id="p-5" style="fill:none;stroke-linecap:round;stroke-linejoin:round;">
  <path d="M 178.200 60.000 H 175.300 C 175.200 60.000 175.300 60.100 175.300 60.000 V 57.200 C 175.300 57.100 175.200 57.200 175.300 57.200 H 181.100 C 181.200 57.200 181.100 57.100 181.100 57.200 V 60.000 C 181.100 60.100 181.200 60.000 181.100 60.000 H 178.200 Z" stroke="rgb(0,0,255)" stroke-width="0.20" />
  <path d="M 190.200 60.000 H 187.300 C 187.200 60.000 187.300 60.100 187.300 60.000 V 57.200 C 187.300 57.100 187.200 57.200 187.300 57.200 H 193.100 C 193.200 57.200 193.100 57.100 193.100 57.200 V 60.000 C 193.100 60.100 193.200 60.000 193.100 60.000 H 190.200 Z" stroke="rgb(0,0,255)" stroke-width="0.20" />
  <path d="M 202.200 60.000 H 199.300 C 199.200 60.000 199.300 60.100 199.300 60.000 V 57.200 C 199.300 57.100 199.200 57.200 199.300 57.200 H 205.100 C 205.200 57.200 205.100 57.100 205.100 57.200 V 60.000 C 205.100 60.100 205.200 60.000 205.100 60.000 H 202.200 Z" stroke="rgb(0,0,255)" stroke-width="0.20" />
  <text alignment-baseline="hanging" font-size="4px" style="font-family: sans-serif ; font-weight: normal; font-style: normal; fill: rgb(255,0,0)" text-anchor="middle" transform="matrix( 1.000 0.000 0.000 1.000 190.200 34.700 )">wall 4</text><path d="M 168.200 63.200 H 212.200 C 212.255 63.200 212.300 63.155 212.300 63.100 V 57.100 V 48.700 C 212.300 48.600 212.200 48.700 212.300 48.700 H 215.200 C 215.255 48.700 215.300 48.655 215.300 48.600 V 42.600 C 215.300 42.545 215.255 42.500 215.200 42.500 H 212.300 C 212.200 42.500 212.300 42.600 212.300 42.500 V 36.700 C 212.300 36.600 212.200 36.700 212.300 36.700 H 215.200 C 215.255 36.700 215.300 36.655 215.300 36.600 V 30.600 C 215.300 30.545 215.255 30.500 215.200 30.500 H 212.300 C 212.200 30.500 212.300 30.600 212.300 30.500 V 24.700 C 212.300 24.600 212.200 24.700 212.300 24.700 H 215.200 C 215.255 24.700 215.300 24.655 215.300 24.600 V 18.600 C 215.300 18.545 215.255 18.500 215.200 18.500 H 212.300 C 212.200 18.500 212.300 18.600 212.300 18.500 V 10.100 C 212.300 10.045 212.255 10.000 212.200 10.000 H 168.200 C 168.145 10.000 168.100 10.045 168.100 10.100 V 18.500 C 168.100 18.600 168.200 18.500 168.100 18.500 H 165.200 C 165.145 18.500 165.100 18.545 165.100 18.600 V 24.600 C 165.100 24.655 165.145 24.700 165.200 24.700 H 168.100 C 168.200 24.700 168.100 24.600 168.100 24.700 V 30.500 C 168.100 30.600 168.200 30.500 168.100 30.500 H 165.200 C 165.145 30.500 165.100 30.545 165.100 30.600 V 36.600 C 165.100 36.655 165.145 36.700 165.200 36.700 H 168.100 C 168.200 36.700 168.100 36.600 168.100 36.700 V 42.500 C 168.100 42.600 168.200 42.500 168.100 42.500 H 165.200 C 165.145 42.500 165.100 42.545 165.100 42.600 V 48.600 C 165.100 48.655 165.145 48.700 165.200 48.700 H 168.100 C 168.200 48.700 168.100 48.600 168.100 48.700 V 57.100 V 63.100 C 168.100 63.155 168.145 63.200 168.200 63.200" stroke="rgb(0,0,0)" stroke-width="0.20" />
</g>
</svg>